<svg width="324" height="46" viewBox="0 0 324 46" fill="none" xmlns="http://www.w3.org/2000/svg">
<path d="M303.938 35.8125H318.094L316.5 46H290.125L297.344 0.25H323.719L322.062 10.8125H307.906L306.75 18.2812H319.875L318.344 28.2188H305.156L303.938 35.8125Z" fill="white"/>
<path d="M227.812 46L241.812 0.25H255.406L258.469 17.9688C258.656 19.0521 258.823 20.1979 258.969 21.4062C259.135 22.5938 259.292 23.8333 259.438 25.125C259.667 24.2083 259.969 23.2292 260.344 22.1875C260.74 21.125 261.292 19.8021 262 18.2188L270.188 0.25H283.688L284.781 46H273.5L273.375 24.1875C273.375 22.9583 273.396 21.75 273.438 20.5625C273.479 19.3542 273.542 18.1458 273.625 16.9375C273.167 18.4792 272.385 20.4062 271.281 22.7188C271.073 23.1771 270.917 23.5208 270.812 23.75L260.375 46H252.969L248.688 23.7812C248.458 22.6562 248.25 21.5312 248.062 20.4062C247.896 19.2604 247.74 18.1146 247.594 16.9688C247.365 18.3229 247.115 19.6042 246.844 20.8125C246.594 22.0208 246.333 23.1458 246.062 24.1875L239.719 46H227.812Z" fill="white"/>
<path d="M208 46L215.25 0.25H227.719L220.469 46H208Z" fill="white"/>
<path d="M179.219 46L184.781 10.875H174.531L176.281 0.25H208.594L206.844 10.875H197.062L191.5 46H179.219Z" fill="white"/>
<path d="M143.562 46L150.781 0.25H163.094L157.562 35.0625H172.688L170.969 46H143.562Z" fill="white"/>
<path d="M93.125 46L116.031 0.25H131.344L141.062 46H128.656L126.812 37.375H110.812L106.438 46H93.125ZM115.406 27.1875H125.062L122.969 16.5C122.76 15.4375 122.604 14.4896 122.5 13.6562C122.396 12.8229 122.333 12.0417 122.312 11.3125C121.875 12.5625 121.469 13.6667 121.094 14.625C120.74 15.5625 120.458 16.2604 120.25 16.7188L115.406 27.1875Z" fill="white"/>
<path d="M77 35.8125H91.1562L89.5625 46H63.1875L70.4062 0.25H96.7812L95.125 10.8125H80.9688L79.8125 18.2812H92.9375L91.4062 28.2188H78.2188L77 35.8125Z" fill="white"/>
<path d="M0.875 46L14.875 0.25H28.4688L31.5312 17.9688C31.7188 19.0521 31.8854 20.1979 32.0312 21.4062C32.1979 22.5938 32.3542 23.8333 32.5 25.125C32.7292 24.2083 33.0312 23.2292 33.4062 22.1875C33.8021 21.125 34.3542 19.8021 35.0625 18.2188L43.25 0.25H56.75L57.8438 46H46.5625L46.4375 24.1875C46.4375 22.9583 46.4583 21.75 46.5 20.5625C46.5417 19.3542 46.6042 18.1458 46.6875 16.9375C46.2292 18.4792 45.4479 20.4062 44.3438 22.7188C44.1354 23.1771 43.9792 23.5208 43.875 23.75L33.4375 46H26.0312L21.75 23.7812C21.5208 22.6562 21.3125 21.5312 21.125 20.4062C20.9583 19.2604 20.8021 18.1146 20.6562 16.9688C20.4271 18.3229 20.1771 19.6042 19.9062 20.8125C19.6562 22.0208 19.3958 23.1458 19.125 24.1875L12.7812 46H0.875Z" fill="white"/>
</svg>
